<svg xmlns="http://www.w3.org/2000/svg" width="144" height="144" viewBox="0 0 144 144" fill="none">
  <rect x="18" y="18" width="108" height="108" rx="22" fill="#111827"/>
  <path d="M90 42H54C51.2386 42 49 44.2386 49 47V97C49 99.7614 51.2386 102 54 102H90C92.7614 102 95 99.7614 95 97V47C95 44.2386 92.7614 42 90 42Z" fill="#34D399"/>
  <path d="M84 36H60C57.2386 36 55 38.2386 55 41V43H89V41C89 38.2386 86.7614 36 84 36Z" fill="#10B981"/>
  <path d="M73 64H71C68.7909 64 67 65.7909 67 68V80C67 82.2091 68.7909 84 71 84H73C75.2091 84 77 82.2091 77 80V68C77 65.7909 75.2091 64 73 64Z" fill="#ECFDF5"/>
  <path d="M87 70H85C83.8954 70 83 70.8954 83 72V88C83 89.1046 83.8954 90 85 90H87C88.1046 90 89 89.1046 89 88V72C89 70.8954 88.1046 70 87 70Z" fill="#6EE7B7"/>
  <path d="M59 74H57C55.8954 74 55 74.8954 55 76V88C55 89.1046 55.8954 90 57 90H59C60.1046 90 61 89.1046 61 88V76C61 74.8954 60.1046 74 59 74Z" fill="#6EE7B7"/>
</svg>
